ply
format ascii 1.0
comment 72 f_rest properties are 24 per channel: degree 4 is a whole degree the model does not support
element vertex 1
property float x
property float y
property float z
property float scale_0
property float scale_1
property float scale_2
property float rot_0
property float rot_1
property float rot_2
property float rot_3
property float opacity
property float f_dc_0
property float f_dc_1
property float f_dc_2
property float f_rest_0
property float f_rest_1
property float f_rest_2
property float f_rest_3
property float f_rest_4
property float f_rest_5
property float f_rest_6
property float f_rest_7
property float f_rest_8
property float f_rest_9
property float f_rest_10
property float f_rest_11
property float f_rest_12
property float f_rest_13
property float f_rest_14
property float f_rest_15
property float f_rest_16
property float f_rest_17
property float f_rest_18
property float f_rest_19
property float f_rest_20
property float f_rest_21
property float f_rest_22
property float f_rest_23
property float f_rest_24
property float f_rest_25
property float f_rest_26
property float f_rest_27
property float f_rest_28
property float f_rest_29
property float f_rest_30
property float f_rest_31
property float f_rest_32
property float f_rest_33
property float f_rest_34
property float f_rest_35
property float f_rest_36
property float f_rest_37
property float f_rest_38
property float f_rest_39
property float f_rest_40
property float f_rest_41
property float f_rest_42
property float f_rest_43
property float f_rest_44
property float f_rest_45
property float f_rest_46
property float f_rest_47
property float f_rest_48
property float f_rest_49
property float f_rest_50
property float f_rest_51
property float f_rest_52
property float f_rest_53
property float f_rest_54
property float f_rest_55
property float f_rest_56
property float f_rest_57
property float f_rest_58
property float f_rest_59
property float f_rest_60
property float f_rest_61
property float f_rest_62
property float f_rest_63
property float f_rest_64
property float f_rest_65
property float f_rest_66
property float f_rest_67
property float f_rest_68
property float f_rest_69
property float f_rest_70
property float f_rest_71
end_header
1 2 3 0 0 0 1 0 0 0 0 0.1 0.2 0.3 0 0 0 0 0 0 0 0 0 0 0 0 0 0 0 0 0 0 0 0 0 0 0 0 0 0 0 0 0 0 0 0 0 0 0 0 0 0 0 0 0 0 0 0 0 0 0 0 0 0 0 0 0 0 0 0 0 0 0 0 0 0 0 0 0 0 0 0 0 0 0 0
