ply
format ascii 1.0
comment f_rest is channel-major: R0..R7 G0..G7 B0..B7
element vertex 1
property float x
property float y
property float z
property float scale_0
property float scale_1
property float scale_2
property float rot_0
property float rot_1
property float rot_2
property float rot_3
property float opacity
property float f_dc_0
property float f_dc_1
property float f_dc_2
property float f_rest_0
property float f_rest_1
property float f_rest_2
property float f_rest_3
property float f_rest_4
property float f_rest_5
property float f_rest_6
property float f_rest_7
property float f_rest_8
property float f_rest_9
property float f_rest_10
property float f_rest_11
property float f_rest_12
property float f_rest_13
property float f_rest_14
property float f_rest_15
property float f_rest_16
property float f_rest_17
property float f_rest_18
property float f_rest_19
property float f_rest_20
property float f_rest_21
property float f_rest_22
property float f_rest_23
end_header
1 2 3 0 0.69314718056 -0.69314718056 1 0 0 0 0 0.1 0.2 0.3 1 2 3 4 5 6 7 8 101 102 103 104 105 106 107 108 201 202 203 204 205 206 207 208
