ply
format ascii 1.0
comment f_rest_2 is missing; indices 0,1,3 are not contiguous
element vertex 1
property float x
property float y
property float z
property float scale_0
property float scale_1
property float scale_2
property float rot_0
property float rot_1
property float rot_2
property float rot_3
property float opacity
property float f_dc_0
property float f_dc_1
property float f_dc_2
property float f_rest_0
property float f_rest_1
property float f_rest_3
end_header
1 2 3 0 0 0 1 0 0 0 0 0.1 0.2 0.3 1 2 3
